<svg width="486" height="479" viewBox="0 0 486 479" fill="none" xmlns="http://www.w3.org/2000/svg">
<path d="M230.247 478.995C356.02 478.995 457.98 377.035 457.98 251.261C457.98 125.488 356.02 23.5284 230.247 23.5284C104.473 23.5284 2.51367 125.488 2.51367 251.261C2.51367 377.035 104.473 478.995 230.247 478.995Z" fill="#C8D2E1"/>
<path d="M182.783 173.191H95.8877V297.805H182.783V173.191Z" fill="#FF5E31"/>
<path d="M182.783 173.191L210.897 132.943H124.001L95.8857 173.191H182.783Z" fill="#122B13"/>
<mask id="mask0_4_996" style="mask-type:luminance" maskUnits="userSpaceOnUse" x="95" y="132" width="116" height="42">
<path d="M182.783 173.191L210.897 132.943H124.001L95.8857 173.191H182.783Z" fill="white"/>
</mask>
<g mask="url(#mask0_4_996)">
<path d="M170.472 139.935H110.208C110.057 139.935 109.935 139.813 109.935 139.662C109.935 139.511 110.057 139.389 110.208 139.389H170.472C170.623 139.389 170.745 139.511 170.745 139.662C170.745 139.813 170.622 139.935 170.472 139.935Z" fill="#C8D2E1"/>
<path d="M163.511 146.896H103.247C103.097 146.896 102.974 146.774 102.974 146.623C102.974 146.472 103.097 146.35 103.247 146.35H163.511C163.662 146.35 163.784 146.472 163.784 146.623C163.784 146.774 163.662 146.896 163.511 146.896Z" fill="#C8D2E1"/>
<path d="M163.877 153.856H96.2864C96.1356 153.856 96.0132 153.734 96.0132 153.583C96.0132 153.432 96.1356 153.31 96.2864 153.31H163.877C164.028 153.31 164.15 153.432 164.15 153.583C164.15 153.734 164.028 153.856 163.877 153.856Z" fill="#C8D2E1"/>
<path d="M158.382 160.818H89.3269C89.1761 160.818 89.0537 160.696 89.0537 160.545C89.0537 160.394 89.1761 160.271 89.3269 160.271H158.382C158.533 160.271 158.655 160.394 158.655 160.545C158.655 160.696 158.533 160.818 158.382 160.818Z" fill="#C8D2E1"/>
<path d="M164.977 167.778H82.366C82.2152 167.778 82.0928 167.655 82.0928 167.504C82.0928 167.354 82.2152 167.231 82.366 167.231H164.977C165.127 167.231 165.25 167.354 165.25 167.504C165.25 167.655 165.127 167.778 164.977 167.778Z" fill="#C8D2E1"/>
</g>
<path d="M132.979 182.598H114.237V200.156H132.979V182.598Z" fill="#122B13"/>
<path d="M132.979 182.598H114.237V185.225H132.979V182.598Z" fill="#4B8B4D"/>
<path d="M124.155 183.911H123.062V200.608H124.155V183.911Z" fill="#4B8B4D"/>
<path d="M136.513 198.41H110.705V202.468H136.513V198.41Z" fill="#FFA81D"/>
<path d="M132.979 216.36H114.237V233.919H132.979V216.36Z" fill="#122B13"/>
<path d="M132.979 216.36H114.237V218.987H132.979V216.36Z" fill="#4B8B4D"/>
<path d="M124.155 217.294H123.062V233.991H124.155V217.294Z" fill="#4B8B4D"/>
<path d="M136.513 232.172H110.705V236.23H136.513V232.172Z" fill="#FFA81D"/>
<path d="M432.83 318.157H420.173L425.636 189.803L427.59 189.69L432.83 318.157Z" fill="white"/>
<path d="M426.502 184.044C430.036 184.044 432.902 173.934 432.902 161.463C432.902 148.992 430.036 138.882 426.502 138.882C422.967 138.882 420.102 148.992 420.102 161.463C420.102 173.934 422.967 184.044 426.502 184.044Z" fill="white"/>
<path d="M432.518 155.272H420.493C421.647 145.81 425.121 138.885 426.506 138.885C427.878 138.886 431.364 145.81 432.518 155.272Z" fill="#FFA81D"/>
<path d="M466.222 212.166C468.151 209.205 461.246 201.284 450.798 194.475C440.35 187.666 430.315 184.546 428.385 187.508C426.455 190.469 433.361 198.39 443.809 205.199C454.257 212.008 464.292 215.127 466.222 212.166Z" fill="white"/>
<path d="M466.227 212.183C465.462 213.361 457.553 212.451 448.856 208.102L455.646 198.068C463.032 204.251 466.98 211.017 466.227 212.183Z" fill="#FFA81D"/>
<path d="M409.043 205.225C419.491 198.415 426.397 190.495 424.467 187.533C422.537 184.572 412.502 187.691 402.054 194.501C391.606 201.31 384.7 209.23 386.63 212.192C388.56 215.153 398.595 212.034 409.043 205.225Z" fill="white"/>
<path d="M386.618 212.183C387.384 213.361 395.292 212.451 403.989 208.102L397.199 198.068C389.813 204.251 385.865 211.017 386.618 212.183Z" fill="#FFA81D"/>
<path d="M426.501 191.531C428.834 191.531 430.724 189.64 430.724 187.308C430.724 184.976 428.834 183.085 426.501 183.085C424.169 183.085 422.278 184.976 422.278 187.308C422.278 189.64 424.169 191.531 426.501 191.531Z" fill="#FFA81D"/>
<path d="M403.514 350.814C424.414 350.814 441.356 335.998 441.356 317.721C441.356 299.444 424.414 284.627 403.514 284.627C382.614 284.627 365.671 299.444 365.671 317.721C365.671 335.998 382.614 350.814 403.514 350.814Z" fill="#05C472"/>
<path d="M61.8708 350.814C86.9379 350.814 107.259 335.998 107.259 317.721C107.259 299.444 86.9379 284.627 61.8708 284.627C36.8038 284.627 16.4829 299.444 16.4829 317.721C16.4829 335.998 36.8038 350.814 61.8708 350.814Z" fill="#05C472"/>
<path d="M119.026 350.816C150.951 350.816 176.831 328.684 176.831 301.384C176.831 274.083 150.951 251.952 119.026 251.952C87.1017 251.952 61.2217 274.083 61.2217 301.384C61.2217 328.684 87.1017 350.816 119.026 350.816Z" fill="#05C472"/>
<path d="M130.934 97.3541H171.672C171.399 88.955 162.38 82.2095 151.302 82.2095C144.911 82.2095 139.206 84.4533 135.465 87.9659C132.727 90.542 131.045 93.7967 130.934 97.3541Z" fill="#4B8B4D"/>
<path d="M92.2837 94.3125C92.2837 95.353 92.417 96.364 92.675 97.353H136.802C137.06 96.364 137.193 95.353 137.193 94.3125C137.193 92.0611 136.581 89.9135 135.466 87.9659C132.086 82.003 124.078 77.8182 114.734 77.8182C108.225 77.8182 102.358 79.8554 98.262 83.1024C94.5493 86.0468 92.2837 89.9813 92.2837 94.3125Z" fill="#4B8B4D"/>
<path d="M237.639 110.78H150.956V235.393H237.639V110.78Z" fill="#05C472"/>
<path d="M237.639 110.78L265.755 70.5317H178.857L150.743 110.78H237.639Z" fill="#122B13"/>
<path d="M293.608 110.78H237.639V235.393H293.608V110.78Z" fill="white"/>
<path d="M237.639 110.78L265.753 70.5328L293.609 110.78H237.639Z" fill="white"/>
<path d="M209.638 51.4515H194.242V73.6968H209.638V51.4515Z" fill="#122B13"/>
<path d="M217.146 127.264H203.64V144.823H217.146V127.264Z" fill="#FFA81D"/>
<path d="M184.955 127.264H171.449V144.823H184.955V127.264Z" fill="#FFA81D"/>
<path d="M217.146 127.261V144.826H214.764V129.642H203.637V127.261H217.146Z" fill="#122B13"/>
<path d="M184.955 127.264V144.829H182.575V129.645H171.448V127.264H184.955Z" fill="#122B13"/>
<path d="M217.146 153.363H203.64V170.922H217.146V153.363Z" fill="#FFA81D"/>
<path d="M184.955 153.363H171.449V170.922H184.955V153.363Z" fill="#FFA81D"/>
<path d="M217.146 153.363V170.927H214.764V155.744H203.637V153.363H217.146Z" fill="#122B13"/>
<path d="M184.955 153.365V170.931H182.575V155.747H171.448V153.365H184.955Z" fill="#122B13"/>
<path d="M217.146 179.462H203.64V197.021H217.146V179.462Z" fill="#FFA81D"/>
<path d="M184.955 179.462H171.449V197.021H184.955V179.462Z" fill="#FFA81D"/>
<path d="M217.146 179.462V197.026H214.764V181.842H203.637V179.462H217.146Z" fill="#122B13"/>
<path d="M184.955 179.464V197.03H182.575V181.846H171.448V179.464H184.955Z" fill="#122B13"/>
<path d="M271.449 115.235H259.799V147.997H271.449V115.235Z" fill="#FF5E31"/>
<path d="M254.599 86.5036L254.982 85.9572H245.288C245.2 85.9572 245.124 86.0009 245.069 86.0664L241.484 91.1922C241.43 91.2797 241.419 91.389 241.473 91.4764C241.517 91.5638 241.616 91.6294 241.714 91.6294H251.015L251.397 91.083H242.238L245.43 86.5036H254.599Z" fill="white"/>
<path d="M198.598 77.4433C198.543 77.3559 198.456 77.2903 198.357 77.2903H187.286C187.199 77.2903 187.111 77.334 187.057 77.4105L183.483 82.5363C183.461 82.5582 183.45 82.5909 183.439 82.6237C183.417 82.6893 183.428 82.7658 183.461 82.8205C183.505 82.9079 183.603 82.9625 183.701 82.9625H194.773C194.86 82.9625 194.948 82.9188 194.991 82.8533L195.155 82.6237L198.576 77.7275C198.631 77.64 198.642 77.5307 198.598 77.4433ZM194.631 82.4161H184.226L187.428 77.8367H197.833L194.631 82.4161Z" fill="white"/>
<path d="M201.888 82.7659C201.844 82.6784 201.757 82.6238 201.648 82.6238H190.587C190.489 82.6238 190.412 82.6675 190.358 82.7331L190.194 82.9626L190.052 83.1702L186.86 87.7496L186.784 87.8589C186.718 87.9463 186.718 88.0556 186.762 88.143C186.806 88.2305 186.904 88.296 187.002 88.296H198.074C198.161 88.296 198.238 88.2523 198.292 88.1758L201.877 83.05C201.932 82.9626 201.943 82.8533 201.888 82.7659ZM197.932 87.7496H187.527L190.729 83.1702H201.123L197.932 87.7496Z" fill="white"/>
<path d="M190.926 82.7659C190.871 82.6784 190.784 82.6238 190.674 82.6238H179.614C179.527 82.6238 179.439 82.6675 179.384 82.7331L175.811 87.8589C175.745 87.9463 175.745 88.0556 175.789 88.143C175.832 88.2305 175.931 88.296 176.029 88.296H187.1C187.188 88.296 187.275 88.2523 187.319 88.1758L187.614 87.7496L190.816 83.1702L190.904 83.05C190.926 83.0172 190.937 82.9844 190.937 82.9626C190.959 82.897 190.959 82.8205 190.926 82.7659ZM186.958 87.7496H176.554L179.756 83.1702H190.161L186.958 87.7496Z" fill="white"/>
<path d="M243.156 102.887L242.774 103.433H213.582C213.429 103.433 213.309 103.313 213.309 103.16C213.309 103.018 213.429 102.887 213.582 102.887H243.156Z" fill="white"/>
<path d="M247.932 96.0449L247.55 96.5913H227.44C227.287 96.5913 227.167 96.4711 227.167 96.3181C227.167 96.1651 227.287 96.0449 227.44 96.0449H247.932Z" fill="white"/>
<path d="M308.25 178.245H208.447V261.191H308.25V178.245Z" fill="#4B8B4D"/>
<path d="M372.533 178.245H308.25V261.191H372.533V178.245Z" fill="white"/>
<path d="M308.25 178.245L340.541 132.019L372.533 178.245H308.25Z" fill="white"/>
<path d="M345.218 206.094H333.569V238.856H345.218V206.094Z" fill="#FF5E31"/>
<path d="M339.978 170.808H338.809C335.915 170.808 333.569 173.155 333.569 176.049V196.437H345.218V176.049C345.218 173.155 342.872 170.808 339.978 170.808Z" fill="#FF5E31"/>
<path d="M299.522 188.75H287.873V206.93H299.522V188.75Z" fill="#122B13"/>
<path d="M276.234 188.75H264.584V206.93H276.234V188.75Z" fill="#122B13"/>
<path d="M252.537 188.75H240.887V206.93H252.537V188.75Z" fill="#122B13"/>
<path d="M229.334 188.75H217.685V206.93H229.334V188.75Z" fill="#122B13"/>
<path d="M308.25 178.245L340.542 132.018H240.737L208.446 178.245H308.25Z" fill="#122B13"/>
<path d="M245.331 160.232C245.287 160.134 245.2 160.079 245.09 160.079H234.03C233.932 160.079 233.855 160.123 233.801 160.199L230.227 165.325C230.161 165.402 230.161 165.511 230.205 165.609C230.248 165.697 230.347 165.751 230.445 165.751H241.517C241.604 165.751 241.68 165.708 241.735 165.631L241.921 165.369L245.32 160.505C245.375 160.429 245.385 160.32 245.331 160.232ZM241.374 165.205H230.97L234.172 160.626H244.566L241.374 165.205Z" fill="white"/>
<path d="M256.402 132.013L254.151 135.237H243.746L245.998 132.013H245.342L243.003 135.357C242.948 135.445 242.937 135.554 242.981 135.641C243.036 135.729 243.123 135.784 243.222 135.784H254.293C254.38 135.784 254.468 135.74 254.511 135.674L257.069 132.013H256.402Z" fill="white"/>
<path d="M252.971 165.511C252.927 165.424 252.828 165.369 252.73 165.369H241.67C241.571 165.369 241.495 165.413 241.44 165.489L241.254 165.751L237.855 170.615C237.801 170.691 237.801 170.801 237.845 170.899C237.888 170.987 237.987 171.041 238.085 171.041H249.156C249.244 171.041 249.32 170.997 249.375 170.921L252.96 165.795C253.014 165.719 253.025 165.609 252.971 165.511ZM249.014 170.495H238.61L241.812 165.915H252.206L249.014 170.495Z" fill="white"/>
<path d="M282.064 152.44C282.01 152.352 281.922 152.298 281.813 152.298H270.753C270.665 152.298 270.578 152.341 270.523 152.418L270.37 152.636L266.949 157.544C266.884 157.62 266.884 157.729 266.927 157.817C266.971 157.915 267.07 157.97 267.168 157.97H278.239C278.327 157.97 278.414 157.926 278.458 157.85L282.043 152.724C282.064 152.702 282.075 152.669 282.075 152.636C282.097 152.571 282.097 152.505 282.064 152.44ZM278.097 157.423H267.693L270.895 152.844H281.288L278.097 157.423Z" fill="white"/>
<path d="M278.764 147.117C278.72 147.03 278.621 146.964 278.523 146.964H267.452C267.364 146.964 267.277 147.008 267.233 147.084L263.648 152.21C263.594 152.298 263.583 152.407 263.627 152.494C263.681 152.582 263.769 152.636 263.878 152.636H274.938C275.026 152.636 275.113 152.593 275.168 152.527L275.332 152.298L275.474 152.09L278.665 147.511L278.742 147.401C278.807 147.314 278.807 147.205 278.764 147.117ZM274.796 152.09H264.403L267.594 147.511H277.998L274.796 152.09Z" fill="white"/>
<path d="M289.736 147.117C289.681 147.03 289.594 146.964 289.485 146.964H278.424C278.337 146.964 278.25 147.008 278.195 147.084L277.9 147.511L274.708 152.09L274.621 152.21C274.599 152.232 274.588 152.265 274.577 152.298C274.555 152.363 274.566 152.44 274.599 152.494C274.643 152.582 274.741 152.636 274.84 152.636H285.911C285.998 152.636 286.086 152.593 286.129 152.527L289.714 147.401C289.769 147.314 289.78 147.205 289.736 147.117ZM285.769 152.09H275.364L278.566 147.511H288.971L285.769 152.09Z" fill="white"/>
<path d="M335.453 139.303L335.071 139.849H322.972C322.819 139.849 322.699 139.729 322.699 139.576C322.699 139.423 322.819 139.303 322.972 139.303H335.453Z" fill="white"/>
<path d="M374.829 160.697L338.218 242.52H411.438L374.829 160.697Z" fill="#05C472"/>
<path d="M374.829 290.19C374.224 290.19 373.736 289.702 373.736 289.097V178.423C373.736 177.818 374.224 177.33 374.829 177.33C375.433 177.33 375.922 177.818 375.922 178.423V289.098C375.922 289.702 375.433 290.19 374.829 290.19Z" fill="white"/>
<path d="M374.614 202.951C374.329 202.951 374.046 202.841 373.832 202.622L364.241 192.825C363.819 192.393 363.826 191.703 364.258 191.28C364.69 190.857 365.381 190.866 365.803 191.297L375.395 201.094C375.817 201.526 375.809 202.217 375.377 202.64C375.165 202.847 374.889 202.951 374.614 202.951Z" fill="white"/>
<path d="M374.614 227.239C374.332 227.239 374.05 227.13 373.836 226.914L357.509 210.382C357.084 209.951 357.089 209.26 357.518 208.835C357.949 208.411 358.639 208.417 359.065 208.845L375.392 225.378C375.816 225.808 375.812 226.499 375.382 226.924C375.169 227.134 374.891 227.239 374.614 227.239Z" fill="white"/>
<path d="M375.085 227.617C374.832 227.617 374.579 227.531 374.373 227.354C373.915 226.96 373.863 226.271 374.256 225.813L387.652 210.221C388.048 209.763 388.737 209.712 389.193 210.104C389.651 210.498 389.703 211.187 389.31 211.645L375.914 227.237C375.698 227.488 375.393 227.617 375.085 227.617Z" fill="white"/>
<path d="M356.158 271.9H278.967V318.156H356.158V271.9Z" fill="#FF5E31"/>
<path d="M356.157 271.9L381.193 235.991H303.814L278.778 271.9H356.157Z" fill="#122B13"/>
<path d="M405.997 271.9H356.157V318.156H405.997V271.9Z" fill="white"/>
<path d="M356.157 271.9L381.193 235.993L405.997 271.9H356.157Z" fill="white"/>
<path d="M341.087 286.034H297.726V304.023H341.087V286.034Z" fill="#4B8B4D"/>
<path d="M386.824 276.511H375.33V288.005H386.824V276.511Z" fill="#05C472"/>
<path d="M386.824 295.464H375.33V306.958H386.824V295.464Z" fill="#05C472"/>
<path d="M378.328 240.103L377.563 241.196H373.093C372.798 241.196 372.546 240.944 372.546 240.649C372.546 240.343 372.798 240.103 373.093 240.103H378.328Z" fill="white"/>
<path d="M374.776 245.196L374.011 246.289H368.907C368.601 246.289 368.36 246.048 368.36 245.742C368.36 245.436 368.601 245.196 368.907 245.196H374.776Z" fill="white"/>
<path d="M371.213 250.3L370.448 251.393H365.607C365.311 251.393 365.06 251.141 365.06 250.846C365.06 250.54 365.311 250.3 365.607 250.3H371.213Z" fill="white"/>
<path d="M367.661 255.393L366.896 256.486H362.066C361.759 256.486 361.519 256.245 361.519 255.939C361.519 255.633 361.759 255.393 362.066 255.393H367.661Z" fill="white"/>
<path d="M364.109 260.486L363.344 261.579H358.896C358.6 261.579 358.349 261.338 358.349 261.032C358.349 260.737 358.6 260.486 358.896 260.486H364.109Z" fill="white"/>
<path d="M360.546 265.59L359.792 266.683H355.092C354.786 266.683 354.546 266.431 354.546 266.136C354.546 265.83 354.786 265.59 355.092 265.59H360.546Z" fill="white"/>
<path d="M126.113 236.966L96.1758 303.876H156.05L126.113 236.966Z" fill="#122B13"/>
<path d="M126.113 339.493C125.473 339.493 124.955 338.975 124.955 338.334V251.46C124.955 250.82 125.473 250.302 126.113 250.302C126.754 250.302 127.272 250.82 127.272 251.46V338.334C127.272 338.975 126.754 339.493 126.113 339.493Z" fill="white"/>
<path d="M125.937 271.783C125.636 271.783 125.336 271.666 125.109 271.435L117.265 263.425C116.818 262.968 116.824 262.234 117.283 261.786C117.74 261.338 118.472 261.346 118.921 261.805L126.765 269.815C127.212 270.272 127.206 271.005 126.747 271.453C126.522 271.674 126.23 271.783 125.937 271.783Z" fill="white"/>
<path d="M125.937 291.645C125.639 291.645 125.339 291.529 125.112 291.301L111.761 277.781C111.312 277.326 111.316 276.592 111.771 276.142C112.226 275.693 112.959 275.698 113.41 276.152L126.761 289.671C127.21 290.127 127.206 290.86 126.751 291.311C126.525 291.533 126.231 291.645 125.937 291.645Z" fill="white"/>
<path d="M216.781 247.726H131.359V318.072H216.781V247.726Z" fill="#FFA81D"/>
<path d="M216.781 247.726H131.359V253.809H216.781V247.726Z" fill="#FF5E31"/>
<path d="M216.781 247.726L254.855 193.116H169.433L131.359 247.726H216.781Z" fill="#122B13"/>
<path d="M292.574 247.726H216.78V318.072H292.574V247.726Z" fill="white"/>
<path d="M216.78 247.726L254.853 193.118L292.574 247.726H216.78Z" fill="white"/>
<path d="M166.028 265.91H146.446V288.307H166.028V265.91Z" fill="#FF5E31"/>
<path d="M169.991 287.444H142.481V292.775H169.991V287.444Z" fill="white"/>
<path d="M156.728 265.91H155.635V290.108H156.728V265.91Z" fill="white"/>
<path d="M159.276 276.148H158.729V278.457H159.276V276.148Z" fill="white"/>
<path d="M153.689 276.148H153.143V278.457H153.689V276.148Z" fill="white"/>
<path d="M202.206 265.91H182.624V288.307H202.206V265.91Z" fill="#FF5E31"/>
<path d="M206.17 287.444H178.66V292.775H206.17V287.444Z" fill="white"/>
<path d="M192.933 265.91H191.84V290.108H192.933V265.91Z" fill="white"/>
<path d="M195.481 276.148H194.935V278.457H195.481V276.148Z" fill="white"/>
<path d="M189.894 276.148H189.348V278.457H189.894V276.148Z" fill="white"/>
<path d="M268.206 271.142V318.159H241.669V271.142C241.669 267.48 243.156 264.158 245.549 261.753C247.834 259.469 250.937 258.016 254.391 257.885V318.072H255.484V257.885C262.555 258.169 268.206 263.994 268.206 271.142Z" fill="#FFA81D"/>
<path d="M254.391 228.277V238.922H243.746C244.019 233.174 248.631 228.551 254.391 228.277Z" fill="#FFA81D"/>
<path d="M243.746 240.015H254.391V250.66C248.631 250.387 244.019 245.764 243.746 240.015Z" fill="#FFA81D"/>
<path d="M255.484 240.015H266.129C265.856 245.764 261.233 250.387 255.484 250.66V240.015Z" fill="#FFA81D"/>
<path d="M266.129 238.922H255.484V228.277C261.233 228.551 265.856 233.174 266.129 238.922Z" fill="#FFA81D"/>
<path d="M259.051 290.475C259.548 290.475 259.952 290.072 259.952 289.575C259.952 289.078 259.548 288.674 259.051 288.674C258.554 288.674 258.15 289.078 258.15 289.575C258.15 290.072 258.554 290.475 259.051 290.475Z" fill="white"/>
<path d="M250.868 290.475C251.366 290.475 251.769 290.072 251.769 289.575C251.769 289.078 251.366 288.674 250.868 288.674C250.371 288.674 249.968 289.078 249.968 289.575C249.968 290.072 250.371 290.475 250.868 290.475Z" fill="white"/>
<path d="M305.83 240.297L279.691 293.411H331.967L305.83 240.297Z" fill="#05C472"/>
<path d="M305.828 321.712C305.376 321.712 305.009 321.345 305.009 320.893V253.738C305.009 253.286 305.376 252.918 305.828 252.918C306.281 252.918 306.648 253.286 306.648 253.738V320.893C306.648 321.345 306.281 321.712 305.828 321.712Z" fill="white"/>
<path d="M305.712 273.946C305.501 273.946 305.289 273.865 305.128 273.701L297.723 266.196C297.405 265.875 297.409 265.355 297.731 265.037C298.052 264.721 298.571 264.721 298.891 265.045L306.297 272.551C306.615 272.872 306.61 273.392 306.288 273.71C306.128 273.868 305.92 273.946 305.712 273.946Z" fill="white"/>
<path d="M305.712 287.245C305.501 287.245 305.289 287.164 305.129 287.001L296.189 277.95C295.871 277.627 295.874 277.108 296.196 276.79C296.518 276.472 297.037 276.474 297.355 276.797L306.295 285.848C306.613 286.171 306.61 286.69 306.289 287.008C306.128 287.166 305.919 287.245 305.712 287.245Z" fill="white"/>
<path d="M306.207 269.18C306.028 269.18 305.849 269.122 305.698 269.003C305.343 268.721 305.284 268.206 305.565 267.851L310.963 261.043C311.245 260.689 311.76 260.628 312.115 260.91C312.47 261.192 312.529 261.707 312.248 262.062L306.85 268.87C306.687 269.073 306.449 269.18 306.207 269.18Z" fill="white"/>
<path d="M306.573 282.872C306.382 282.872 306.192 282.807 306.038 282.673C305.695 282.377 305.656 281.86 305.952 281.517L315.524 270.406C315.82 270.062 316.338 270.025 316.68 270.32C317.023 270.616 317.062 271.133 316.766 271.476L307.194 282.587C307.032 282.776 306.802 282.872 306.573 282.872Z" fill="white"/>
<path d="M49.7034 318.157H37.0474L42.5098 189.803L44.4639 189.69L49.7034 318.157Z" fill="white"/>
<path d="M43.3757 184.044C46.9104 184.044 49.7759 173.934 49.7759 161.463C49.7759 148.992 46.9104 138.882 43.3757 138.882C39.841 138.882 36.9756 148.992 36.9756 161.463C36.9756 173.934 39.841 184.044 43.3757 184.044Z" fill="white"/>
<path d="M49.3922 155.272H37.3657C38.5198 145.81 41.9942 138.885 43.379 138.885C44.7517 138.886 48.2381 145.81 49.3922 155.272Z" fill="#FFA81D"/>
<path d="M83.1 212.176C85.0299 209.214 78.1245 201.294 67.6762 194.485C57.228 187.675 47.1935 184.556 45.2635 187.517C43.3336 190.479 50.239 198.399 60.6873 205.209C71.1355 212.018 81.17 215.137 83.1 212.176Z" fill="white"/>
<path d="M83.1009 212.183C82.3358 213.361 74.4274 212.451 65.73 208.102L72.5203 198.068C79.9063 204.251 83.8539 211.017 83.1009 212.183Z" fill="#FFA81D"/>
<path d="M25.9072 205.22C36.3554 198.411 43.2609 190.49 41.3309 187.529C39.401 184.567 29.3665 187.687 18.9182 194.496C8.46998 201.305 1.56453 209.226 3.49448 212.187C5.42443 215.148 15.4589 212.029 25.9072 205.22Z" fill="white"/>
<path d="M3.4925 212.183C4.25754 213.361 12.1659 212.451 20.8634 208.102L14.0731 198.068C6.68711 204.251 2.73948 211.017 3.4925 212.183Z" fill="#FFA81D"/>
<path d="M43.3754 191.531C45.7077 191.531 47.5984 189.64 47.5984 187.308C47.5984 184.976 45.7077 183.085 43.3754 183.085C41.0431 183.085 39.1523 184.976 39.1523 187.308C39.1523 189.64 41.0431 191.531 43.3754 191.531Z" fill="#FFA81D"/>
<path d="M447.994 318.157C419.411 411.29 332.74 479 230.252 479C127.753 479 41.0817 411.29 12.4985 318.157H447.994Z" fill="#4B8B4D"/>
<path d="M238.101 396.165H198.669V327.867L238.101 396.165Z" fill="white"/>
<path d="M153.889 396.165H193.321V327.867L153.889 396.165Z" fill="white"/>
<path d="M195.995 411.639C195.693 411.639 195.448 411.394 195.448 411.093V324.674C195.448 324.372 195.693 324.128 195.995 324.128C196.296 324.128 196.541 324.372 196.541 324.674V411.093C196.541 411.395 196.296 411.639 195.995 411.639Z" fill="#122B13"/>
<path d="M228.776 427.438H160.786L149.854 407.346H237.278L228.776 427.438Z" fill="#FF5E31"/>
<mask id="mask1_4_996" style="mask-type:luminance" maskUnits="userSpaceOnUse" x="149" y="407" width="89" height="21">
<path d="M228.776 427.438H160.786L149.854 407.346H237.278L228.776 427.438Z" fill="white"/>
</mask>
<g mask="url(#mask1_4_996)">
<path d="M236.523 413.472H150.317C150.015 413.472 149.771 413.227 149.771 412.925C149.771 412.624 150.015 412.379 150.317 412.379H236.523C236.825 412.379 237.07 412.624 237.07 412.925C237.07 413.227 236.825 413.472 236.523 413.472Z" fill="#122B13"/>
</g>
<path d="M115.7 352.652C115.7 353.253 115.208 353.745 114.607 353.745C110.935 353.745 109.132 354.739 107.23 355.799C105.164 356.936 103.033 358.116 98.8036 358.116C94.574 358.116 92.4319 356.936 90.3662 355.799C88.4646 354.739 86.6722 353.745 83 353.745C79.3387 353.745 77.5354 354.739 75.6337 355.799C73.5681 356.936 71.4368 358.116 67.2072 358.116C62.9776 358.116 60.8464 356.936 58.7808 355.799C56.8791 354.739 55.0868 353.745 51.4145 353.745C47.7533 353.745 45.9499 354.739 44.0483 355.799C41.9936 356.936 39.8514 358.116 35.6218 358.116C32.037 358.116 29.9605 357.264 28.1462 356.313C27.5561 355.187 26.9768 354.051 26.4194 352.914C27.0643 353.231 27.6654 353.559 28.2555 353.887C30.1572 354.936 31.9605 355.931 35.6218 355.931C39.294 355.931 41.0864 354.936 42.9881 353.887C45.0537 352.739 47.1849 351.559 51.4145 351.559C55.6441 351.559 57.7753 352.739 59.841 353.887C61.7426 354.936 63.546 355.931 67.2072 355.931C70.8795 355.931 72.6719 354.936 74.5735 353.887C76.6392 352.739 78.7704 351.559 83 351.559C87.2296 351.559 89.3608 352.739 91.4264 353.887C93.339 354.936 95.1314 355.931 98.8036 355.931C102.465 355.931 104.268 354.936 106.17 353.887C108.236 352.739 110.367 351.559 114.607 351.559C115.208 351.559 115.7 352.051 115.7 352.652Z" fill="white"/>
<path d="M329.811 407.975C325.636 407.975 323.532 406.793 321.498 405.65C319.627 404.597 317.859 403.604 314.257 403.604C310.657 403.604 308.89 404.597 307.02 405.65C304.988 406.793 302.885 407.975 298.712 407.975C294.538 407.975 292.435 406.793 290.402 405.649C288.53 404.597 286.764 403.604 283.163 403.604C279.563 403.604 277.797 404.597 275.927 405.65C273.894 406.793 271.791 407.975 267.618 407.975C263.446 407.975 261.343 406.793 259.308 405.65C257.437 404.597 255.671 403.604 252.069 403.604C251.465 403.604 250.977 403.115 250.977 402.511C250.977 401.907 251.465 401.418 252.069 401.418C256.242 401.418 258.345 402.6 260.38 403.744C262.251 404.796 264.017 405.79 267.618 405.79C271.219 405.79 272.985 404.796 274.855 403.744C276.888 402.6 278.99 401.418 283.163 401.418C287.336 401.418 289.439 402.6 291.474 403.744C293.345 404.796 295.112 405.79 298.713 405.79C302.313 405.79 304.079 404.796 305.949 403.744C307.982 402.6 310.085 401.418 314.258 401.418C318.433 401.418 320.537 402.6 322.571 403.744C324.442 404.796 326.21 405.79 329.812 405.79C333.414 405.79 335.183 404.796 337.054 403.744C339.089 402.6 341.193 401.418 345.368 401.418C345.972 401.418 346.461 401.907 346.461 402.511C346.461 403.115 345.972 403.604 345.368 403.604C341.764 403.604 339.996 404.597 338.125 405.65C336.089 406.793 333.985 407.975 329.811 407.975Z" fill="#122B13"/>
<path d="M377.458 375.357C374.723 375.357 373.335 374.036 372.109 372.871C371.002 371.817 370.127 370.986 368.267 370.986C366.409 370.986 365.535 371.817 364.429 372.871C363.205 374.036 361.817 375.357 359.083 375.357C356.349 375.357 354.962 374.036 353.736 372.871C352.63 371.817 351.755 370.986 349.896 370.986C348.038 370.986 347.164 371.817 346.058 372.871C344.834 374.036 343.446 375.357 340.713 375.357C337.98 375.357 336.592 374.036 335.368 372.871C334.262 371.817 333.389 370.986 331.531 370.986C330.927 370.986 330.438 370.497 330.438 369.893C330.438 369.288 330.927 368.8 331.531 368.8C334.263 368.8 335.651 370.121 336.875 371.286C337.981 372.34 338.855 373.171 340.713 373.171C342.571 373.171 343.445 372.34 344.551 371.286C345.775 370.121 347.163 368.8 349.896 368.8C352.63 368.8 354.018 370.121 355.243 371.286C356.35 372.34 357.223 373.171 359.083 373.171C360.941 373.171 361.816 372.34 362.922 371.286C364.146 370.121 365.534 368.8 368.267 368.8C371.002 368.8 372.39 370.121 373.616 371.286C374.723 372.34 375.597 373.171 377.458 373.171C379.318 373.171 380.192 372.34 381.299 371.286C382.524 370.121 383.914 368.8 386.648 368.8C387.252 368.8 387.741 369.288 387.741 369.893C387.741 370.497 387.252 370.986 386.648 370.986C384.788 370.986 383.914 371.817 382.806 372.871C381.581 374.036 380.192 375.357 377.458 375.357Z" fill="white"/>
<path d="M335.989 453.015C334.874 453.605 333.748 454.184 332.623 454.753C331.246 454.272 330.273 453.496 329.377 452.785C328.054 451.736 326.918 450.84 324.546 450.84C322.174 450.84 321.038 451.736 319.726 452.785C318.294 453.922 316.677 455.212 313.54 455.212C310.404 455.212 308.786 453.922 307.354 452.785C306.043 451.736 304.906 450.84 302.535 450.84C300.163 450.84 299.026 451.736 297.704 452.785C296.283 453.922 294.655 455.212 291.529 455.212C288.392 455.212 286.775 453.922 285.343 452.785C284.031 451.736 282.895 450.84 280.523 450.84C279.922 450.84 279.43 450.348 279.43 449.747C279.43 449.135 279.922 448.654 280.523 448.654C283.66 448.654 285.277 449.933 286.709 451.069C288.021 452.119 289.157 453.026 291.529 453.026C293.9 453.026 295.037 452.119 296.349 451.069C297.78 449.933 299.398 448.654 302.535 448.654C305.66 448.654 307.289 449.933 308.72 451.069C310.032 452.119 311.169 453.026 313.54 453.026C315.912 453.026 317.049 452.119 318.36 451.069C319.792 449.933 321.409 448.654 324.546 448.654C327.683 448.654 329.3 449.933 330.732 451.069C332.043 452.119 333.191 453.026 335.563 453.026C335.705 453.026 335.847 453.026 335.989 453.015Z" fill="white"/>
<path d="M336.511 338.029C333.153 338.029 331.405 336.756 329.862 335.634C328.405 334.573 327.147 333.657 324.499 333.657C321.852 333.657 320.594 334.573 319.137 335.634C317.595 336.756 315.846 338.029 312.488 338.029C309.131 338.029 307.384 336.756 305.842 335.634C304.386 334.573 303.129 333.657 300.483 333.657C297.837 333.657 296.579 334.573 295.124 335.634C293.581 336.756 291.834 338.029 288.476 338.029C285.119 338.029 283.371 336.756 281.83 335.634C280.375 334.573 279.118 333.657 276.473 333.657C275.868 333.657 275.38 333.168 275.38 332.564C275.38 331.96 275.868 331.471 276.473 331.471C279.829 331.471 281.577 332.743 283.118 333.866C284.574 334.927 285.83 335.843 288.476 335.843C291.122 335.843 292.38 334.927 293.836 333.866C295.378 332.743 297.126 331.471 300.483 331.471C303.84 331.471 305.587 332.743 307.129 333.866C308.585 334.927 309.842 335.843 312.488 335.843C315.135 335.843 316.393 334.927 317.85 333.866C319.392 332.743 321.14 331.471 324.499 331.471C327.858 331.471 329.606 332.743 331.149 333.866C332.606 334.927 333.864 335.843 336.511 335.843C337.116 335.843 337.604 336.331 337.604 336.936C337.604 337.54 337.116 338.029 336.511 338.029Z" fill="#122B13"/>
<path d="M185.336 429.177C181.851 429.177 180.034 427.911 178.43 426.794C176.897 425.727 175.571 424.805 172.774 424.805C169.979 424.805 168.654 425.728 167.122 426.794C165.519 427.91 163.702 429.177 160.221 429.177C156.74 429.177 154.922 427.911 153.32 426.794C151.786 425.727 150.462 424.805 147.665 424.805C144.87 424.805 143.546 425.728 142.013 426.794C140.41 427.91 138.593 429.177 135.113 429.177C131.633 429.177 129.816 427.911 128.214 426.794C126.682 425.727 125.358 424.805 122.564 424.805C121.959 424.805 121.471 424.317 121.471 423.712C121.471 423.108 121.959 422.62 122.564 422.62C126.045 422.62 127.861 423.885 129.463 425.002C130.995 426.07 132.319 426.991 135.113 426.991C137.908 426.991 139.233 426.069 140.765 425.002C142.368 423.886 144.185 422.62 147.665 422.62C151.148 422.62 152.965 423.885 154.568 425.002C156.101 426.07 157.426 426.991 160.221 426.991C163.017 426.991 164.342 426.069 165.874 425.002C167.477 423.886 169.294 422.62 172.774 422.62C176.258 422.62 178.075 423.885 179.679 425.002C181.212 426.07 182.538 426.991 185.336 426.991C188.133 426.991 189.457 426.069 190.991 425.002C192.596 423.886 194.413 422.62 197.896 422.62C198.501 422.62 198.989 423.108 198.989 423.712C198.989 424.317 198.501 424.805 197.896 424.805C195.099 424.805 193.774 425.728 192.24 426.796C190.636 427.913 188.819 429.177 185.336 429.177Z" fill="white"/>
<path d="M353.805 126.129C380.534 126.129 402.203 104.46 402.203 77.7307C402.203 51.0013 380.534 29.3329 353.805 29.3329C327.076 29.3329 305.407 51.0013 305.407 77.7307C305.407 104.46 327.076 126.129 353.805 126.129Z" fill="#FFA81D"/>
<path d="M66.5397 46.5279H6.21045C6.61483 34.0904 19.9703 24.1011 36.3751 24.1011C45.8398 24.1011 54.288 27.4236 59.8291 32.6259C63.8839 36.4402 66.3757 41.26 66.5397 46.5279Z" fill="#4B8B4D"/>
<path d="M123.776 42.025C123.776 43.566 123.579 45.0633 123.196 46.5278H57.8507C57.4682 45.0633 57.2715 43.566 57.2715 42.025C57.2715 38.6916 58.1786 35.5112 59.8289 32.6259C64.8345 23.7951 76.6927 17.5982 90.5291 17.5982C100.169 17.5982 108.857 20.6147 114.923 25.4235C120.42 29.7843 123.776 35.6095 123.776 42.025Z" fill="#4B8B4D"/>
<path d="M174.247 35.4019C174.247 39.3146 173.581 43.0633 172.346 46.5278H115.306C114.071 43.0633 113.404 39.3146 113.404 35.4019C113.404 31.9155 113.929 28.5602 114.923 25.4235C118.902 12.6582 130.345 3.43396 143.831 3.43396C160.629 3.43396 174.247 17.7512 174.247 35.4019Z" fill="#4B8B4D"/>
<path d="M421.551 102.996H354.497C354.946 89.1726 369.79 78.0696 388.024 78.0696C398.543 78.0696 407.933 81.7626 414.092 87.5441C418.599 91.7836 421.369 97.1411 421.551 102.996Z" fill="#4B8B4D"/>
<path d="M485.166 97.9913C485.166 99.7039 484.948 101.368 484.523 102.996H411.894C411.469 101.368 411.25 99.7039 411.25 97.9913C411.25 94.2863 412.259 90.7518 414.093 87.5441C419.657 77.7285 432.836 70.8409 448.215 70.8409C458.929 70.8409 468.586 74.194 475.328 79.5384C481.437 84.3866 485.166 90.8611 485.166 97.9913Z" fill="#4B8B4D"/>
<path d="M389.077 14.8408C389.077 15.7774 389.196 16.6867 389.429 17.5764H429.131C429.363 16.6867 429.482 15.7763 429.482 14.8408C429.482 12.8156 428.932 10.8833 427.928 9.13026C424.887 3.76512 417.682 0 409.277 0C403.42 0 398.141 1.83283 394.455 4.75421C391.115 7.40345 389.077 10.9423 389.077 14.8408Z" fill="#4B8B4D"/>
</svg>
