<svg width="743" height="411" viewBox="0 0 743 411" fill="none" xmlns="http://www.w3.org/2000/svg">
<path d="M520.776 36.9484C541.374 36.9485 558.072 53.647 558.072 74.2452C558.072 94.8433 541.374 111.541 520.776 111.541C500.178 111.541 483.479 94.8434 483.479 74.2452C483.479 53.6469 500.178 36.9484 520.776 36.9484Z" fill="#FD4B13" stroke="#122B13"/>
<path d="M105.406 88.8099C112.991 88.8099 119.264 94.3659 120.417 101.629L120.549 102.458L121.215 101.949C123.467 100.223 126.269 99.187 129.322 99.1869C136.254 99.1869 141.952 104.474 142.604 111.237L142.703 112.256L143.446 111.551C144.649 110.41 146.269 109.707 148.055 109.706C151.759 109.706 154.761 112.709 154.761 116.412C154.761 116.794 154.725 117.17 154.661 117.537L74.645 117.538C73.8414 116.047 73.3794 114.348 73.3794 112.536C73.3794 106.689 78.1179 101.951 83.9644 101.951C85.9848 101.951 87.8656 102.525 89.4741 103.51L90.1841 103.946L90.2339 103.114C90.7105 95.1355 97.3104 88.8101 105.406 88.8099Z" fill="#C4FD72" stroke="#122B13"/>
<path d="M173.358 30.7968C178.101 30.7969 182.063 34.125 183.047 38.5731L183.163 39.0956L183.676 38.9442C184.569 38.6818 185.51 38.536 186.485 38.536C191.957 38.5362 196.415 43.1603 196.415 48.6561C196.415 50.0926 196.098 51.4644 195.545 52.7186H152.972C152.812 52.0867 152.725 51.4304 152.725 50.7577C152.725 46.421 156.244 42.7414 160.553 42.7411C161.391 42.7411 162.198 42.8756 162.957 43.12L163.753 43.3768L163.602 42.5536C163.492 41.9569 163.427 41.3486 163.427 40.7274C163.427 35.2433 167.874 30.7968 173.358 30.7968Z" fill="white" stroke="#122B13"/>
<path d="M502.659 88.8099C510.754 88.8099 517.356 95.1356 517.831 103.114L517.88 103.946L518.591 103.51C520.2 102.526 522.081 101.951 524.101 101.951C529.947 101.951 534.686 106.689 534.686 112.536C534.686 114.348 534.223 116.047 533.419 117.538L453.405 117.537C453.341 117.17 453.305 116.794 453.305 116.412C453.305 112.709 456.308 109.706 460.011 109.706C461.797 109.706 463.417 110.41 464.621 111.551L465.364 112.256L465.462 111.237C466.115 104.474 471.811 99.1869 478.745 99.1869C481.796 99.1869 484.6 100.223 486.851 101.949L487.517 102.458L487.649 101.629C488.802 94.3659 495.075 88.81 502.659 88.8099Z" fill="white" stroke="#122B13"/>
<path d="M407.155 50.7024C412.639 50.7026 417.085 55.149 417.085 60.6331C417.085 61.2543 417.021 61.8623 416.909 62.4583L416.755 63.2834L417.554 63.0256C418.313 62.7812 419.119 62.6467 419.957 62.6467C424.266 62.6467 427.786 66.3265 427.786 70.6633C427.786 71.3361 427.698 71.9923 427.538 72.6243H384.966C384.413 71.3697 384.098 69.9967 384.098 68.5598C384.098 63.0639 388.556 58.4397 394.028 58.4397C395.003 58.4397 395.943 58.586 396.836 58.8499L397.35 59.0022L397.466 58.4788C398.45 54.0306 402.412 50.7024 407.155 50.7024Z" fill="white" stroke="#122B13"/>
<path d="M293.014 0.5C297.543 0.500066 300.951 2.17357 303.281 4.69824C305.619 7.23169 306.896 10.6502 307.096 14.1631L307.139 14.9229L307.818 14.582C310.038 13.4716 312.664 12.8066 315.733 12.8066C324.102 12.8067 329.31 17.6144 331.46 23.667L331.689 24.3145L332.235 23.8955C334.294 22.3158 336.99 21.3262 340.347 21.3262C344.387 21.3262 347.472 22.7506 349.639 24.9268C351.682 26.9795 352.93 29.7247 353.37 32.6338H258.063C258.168 29.1192 259.351 25.659 261.595 23.0459C263.936 20.3195 267.453 18.4864 272.185 18.4863C274.707 18.4863 276.871 19.019 278.705 19.9121L279.678 20.3857L279.409 19.3389C278.324 15.1122 278.928 10.3881 281.198 6.73438C283.457 3.09967 287.379 0.5 293.014 0.5Z" fill="#C4FD72" stroke="#122B13"/>
<path d="M641.02 69.868C645.581 69.868 648.745 71.8378 650.604 74.6093C652.474 77.3982 653.046 81.0342 652.329 84.3719L651.981 85.993L653.167 84.8348C655.025 83.0216 657.62 81.8436 660.753 81.8436C667.519 81.8436 671.334 86.1915 672.268 91.1639L672.473 92.2587L673.155 91.3768C675.025 88.9572 677.946 87.2871 681.983 87.287C686.468 87.287 689.588 89.3286 691.401 92.1903C693.157 94.9623 693.699 98.5284 693.014 101.802L598.889 101.803C599.191 99.2231 600.227 96.7627 601.98 94.9139C603.847 92.9449 606.55 91.6434 610.125 91.6434C610.604 91.6434 611.066 91.6682 611.515 91.7128L611.978 91.7587L612.057 91.2997C612.921 86.2583 616.624 81.8446 623.191 81.8446C625.826 81.8446 627.644 82.5606 629.359 83.7333L630.27 84.3553L630.138 83.2606C629.753 80.0553 630.531 76.6956 632.375 74.1483C634.208 71.6144 637.104 69.8681 641.02 69.868Z" fill="#C4FD72" stroke="#122B13"/>
<path d="M583.17 267.142C590.595 250.732 613.903 250.735 621.326 267.147L682.222 401.784L679.659 414.44L517.958 414.473L583.171 267.143L583.17 267.142Z" fill="#317233" stroke="#122B13"/>
<path d="M486.658 190.672C494.079 174.266 517.389 174.382 524.815 190.802V190.803L541.364 227.133L505.737 240.549L470.11 227.133L486.658 190.673V190.672Z" fill="#4B8B4D" stroke="#122B13"/>
<path d="M541.717 227.913L625.658 414.312L512.432 414.481L486.299 411.718L486.243 411.712L486.188 411.718L461.566 414.558L443.513 414.584L388.71 407.886L469.758 227.913H541.717Z" fill="#317233" stroke="#122B13"/>
<path d="M460.723 248.394C472.278 248.644 485.512 256.958 490.702 273.028C494.612 285.131 493.413 297.673 492.232 309.918C492.054 311.767 491.876 313.612 491.718 315.447C490.732 326.884 490.51 341.495 497.963 351.683C503.557 359.329 512.814 363.815 521.682 367.714C522.396 368.028 523.114 368.338 523.835 368.646L526.008 369.567C534.834 373.296 543.822 377.104 550.267 384.71C560.322 396.57 561.164 408.93 560.969 414.309H551.725C551.922 410.808 551.639 400.637 543.212 390.695C538.164 384.737 530.434 381.48 522.41 378.088H522.409C521.66 377.772 520.914 377.457 520.172 377.14L517.958 376.182C508.242 371.912 497.411 366.599 490.495 357.145C481.562 344.93 481.364 328.917 482.396 315.901L482.5 314.651C482.581 313.718 482.666 312.784 482.754 311.848L483.024 309.034C484.113 297.715 485.162 286.886 482.198 276.841L481.898 275.871L481.732 275.374C479.957 270.245 476.423 265.328 472.067 261.97C467.712 258.614 462.476 256.776 457.321 257.931L456.823 258.052C456.652 258.097 456.469 258.146 456.291 258.197L460.723 248.394Z" fill="#7DD303" stroke="#122B13"/>
<path d="M273.222 89.1639C280.647 72.7484 303.956 72.6765 311.378 89.0858L328.925 128.033L292.663 142.575L255.679 128.031L273.222 89.1639Z" fill="#4B8B4D" stroke="#122B13"/>
<path d="M329.273 128.804L412.477 312.353H172.125L255.33 128.804H329.273Z" fill="#317233" stroke="#122B13"/>
<path d="M156.394 224.336C166.014 203.065 196.22 203.065 205.841 224.336L263.712 352.287L182.356 414.587L120.551 414.442L91.5 367.819L156.394 224.336Z" fill="#317233" stroke="#122B13"/>
<path d="M54.9648 344.229C64.0577 344.229 69.8763 349.218 72.5127 355.657L72.8037 356.368L73.3359 355.815C77.1329 351.866 82.4402 349.5 88.001 349.5C94.9353 349.5 101.5 353.145 105.19 358.988L105.539 359.561C107.262 362.533 108.182 365.719 108.301 369.128L108.313 369.814C108.308 371.704 108.308 382.972 108.31 393.769C108.31 399.171 108.311 404.456 108.312 408.39C108.312 410.357 108.313 411.986 108.313 413.124C108.314 413.672 108.313 414.106 108.313 414.408H108.106C107.645 414.409 106.968 414.409 106.105 414.409C104.379 414.41 101.908 414.412 98.9316 414.413C92.978 414.416 84.9982 414.42 76.8945 414.424C60.7445 414.432 44.1019 414.44 42.0186 414.44C39.3878 414.32 36.94 413.541 34.668 412.094L34.6611 412.09L34.6543 412.085L34.0996 411.745C31.3694 410.017 29.1755 407.756 27.5146 404.957C26.2584 401.98 26.0977 401.597 26.0781 401.551C26.059 401.505 26.1789 401.789 25.4834 400.141C24.5415 396.617 24.5443 393.097 25.4922 389.572L25.4941 389.565L25.4961 389.558C26.1091 386.98 27.2877 384.741 29.0352 382.831L29.0635 382.801L29.0859 382.766C30.4797 380.613 32.3288 378.915 34.6367 377.671L34.6523 377.662L34.668 377.652C35.8705 376.887 37.1275 376.322 38.4316 375.928L39.043 375.742L38.7168 375.193C35.2365 369.33 34.8503 361.569 37.5693 355.282C40.2764 349.023 46.0566 344.229 54.9648 344.229Z" fill="#FD4B13" stroke="#122B13"/>
<path d="M707.719 344.229C716.628 344.229 722.409 349.023 725.116 355.282C727.835 361.569 727.448 369.33 723.967 375.193L723.641 375.742L724.252 375.928C725.557 376.322 726.814 376.887 728.016 377.652L728.032 377.662L728.047 377.671C730.355 378.915 732.204 380.613 733.598 382.766L733.621 382.801L733.649 382.831C735.396 384.741 736.575 386.98 737.188 389.558L737.19 389.565L737.192 389.572C738.14 393.097 738.142 396.616 737.2 400.141C736.504 401.788 736.625 401.505 736.606 401.551C736.586 401.598 736.425 401.98 735.168 404.957C733.397 407.943 731.019 410.317 728.03 412.085L728.023 412.09L728.016 412.094C725.744 413.541 723.296 414.321 720.665 414.44C718.576 414.44 701.937 414.432 685.79 414.424C677.686 414.42 669.706 414.416 663.752 414.413C660.776 414.412 658.305 414.41 656.579 414.409C655.716 414.409 655.039 414.409 654.578 414.408H654.371C654.371 414.106 654.371 413.672 654.372 413.124C654.372 411.986 654.372 410.357 654.373 408.39C654.373 404.456 654.375 399.171 654.375 393.769C654.377 382.972 654.377 371.704 654.371 369.814C654.384 366.146 655.307 362.731 657.144 359.561C660.759 353.384 667.524 349.5 674.682 349.5C680.243 349.5 685.55 351.866 689.347 355.815L689.879 356.368L690.17 355.657C692.807 349.218 698.625 344.229 707.719 344.229Z" fill="#FD4B13" stroke="#122B13"/>
<path d="M160.875 317.529V414.44H149.468V317.529H160.875Z" fill="#7DD303" stroke="#122B13"/>
<path d="M116.349 313.035H134.343C145.403 313.035 154.399 321.867 154.664 332.863H96.0293C96.2906 322.041 105.007 313.316 115.824 313.042L116.349 313.035Z" fill="#C3DFC4" stroke="#122B13"/>
<path d="M175.997 313.035H193.991C205.051 313.035 214.047 321.867 214.312 332.863H155.678C155.943 321.867 164.939 313.035 175.997 313.035Z" fill="#C3DFC4" stroke="#122B13"/>
<path d="M167.941 293.184C176.557 286.25 189.103 287.487 196.204 295.886L150.531 332.655C143.844 323.923 145.314 311.402 153.926 304.468L167.941 293.184Z" fill="#C3DFC4" stroke="#122B13"/>
<path d="M114.137 295.886C121.238 287.487 133.785 286.25 142.398 293.184L156.414 304.468C165.028 311.402 166.497 323.923 159.81 332.655L114.137 295.886Z" fill="#C3DFC4" stroke="#122B13"/>
<path d="M119.773 244.046V414.441H108.367V244.046H119.773Z" fill="#7DD303" stroke="#122B13"/>
<path d="M60.0469 233.616H91.4434C103.664 233.616 113.571 243.522 113.571 255.744L113.57 259.38H37.9189V255.744C37.9189 243.714 47.5177 233.925 59.4756 233.623L60.0469 233.616Z" fill="#C3DFC4" stroke="#122B13"/>
<path d="M136.696 233.616H168.092C180.314 233.616 190.22 243.523 190.22 255.744V259.38H114.57L114.568 255.744L114.575 255.172C114.873 243.404 124.358 233.921 136.125 233.623L136.696 233.616Z" fill="#C3DFC4" stroke="#122B13"/>
<path d="M133.619 205.543C143.137 197.88 157.066 199.384 164.729 208.903L167.01 211.735L108.083 259.177L105.803 256.343V256.342L105.45 255.893C98.1884 246.39 99.792 232.775 109.163 225.232L133.619 205.543Z" fill="#C3DFC4" stroke="#122B13"/>
<path d="M63.4131 208.903C71.0764 199.384 85.0063 197.88 94.5244 205.543L118.98 225.232C128.498 232.895 130.004 246.824 122.341 256.342V256.343L120.058 259.177L61.1309 211.736L63.4131 208.903Z" fill="#C3DFC4" stroke="#122B13"/>
<path d="M99.1006 248.877C104.704 248.877 109.246 253.419 109.246 259.022C109.246 264.626 104.704 269.168 99.1006 269.168C93.4969 269.168 88.9551 264.626 88.9551 259.022C88.9552 253.419 93.497 248.877 99.1006 248.877Z" fill="#4B8B4D" stroke="#122B13"/>
<path d="M128.734 248.877C134.338 248.877 138.88 253.419 138.88 259.022C138.88 264.626 134.338 269.168 128.734 269.168C123.131 269.168 118.589 264.626 118.589 259.022C118.589 253.419 123.131 248.877 128.734 248.877Z" fill="#4B8B4D" stroke="#122B13"/>
<path d="M11.9619 402.155H25.6318C31.9618 402.155 37.0928 407.287 37.0928 413.617V414.441H0.5V413.617C0.5 407.484 5.31597 402.476 11.3721 402.169L11.9619 402.155Z" fill="#C3DFC4" stroke="#122B13"/>
<path d="M7.36621 383.038C11.8279 378.549 19.0839 378.526 23.5752 382.987L38.1211 397.44C42.6106 401.902 42.6333 409.158 38.1719 413.648H38.1709L37.5898 414.233L6.78516 383.621L7.36523 383.039L7.36621 383.038Z" fill="#C3DFC4" stroke="#122B13"/>
<path d="M45.7925 402.155H57.7534C64.0834 402.155 69.2153 407.287 69.2153 413.617V414.441H34.3306V413.617C34.3306 407.484 39.1465 402.476 45.2026 402.169L45.7925 402.155Z" fill="#C3DFC4" stroke="#122B13"/>
<path d="M47.8501 382.987C52.3397 378.525 59.5964 378.548 64.0581 383.038V383.039L64.6372 383.621L33.8325 414.232L33.2544 413.649L33.2534 413.648C28.792 409.158 28.8148 401.902 33.3042 397.44L47.8501 382.987Z" fill="#C3DFC4" stroke="#122B13"/>
<path d="M633.587 225.25V414.441H622.181V225.25H633.587Z" fill="#C3DFC4" stroke="#122B13"/>
<path d="M628.953 148.174C638.175 148.439 645.572 155.998 645.572 165.286V205.509C645.57 214.795 638.175 222.353 628.953 222.618V148.174Z" fill="white" stroke="#122B13"/>
<path d="M604.634 217.111C612.677 212.468 622.921 215.091 627.762 222.946L563.291 260.169C558.909 252.05 561.757 241.866 569.801 237.223L604.634 217.111Z" fill="white" stroke="#122B13"/>
<path d="M693.113 261.036C688.273 268.891 678.029 271.516 669.985 266.872L635.152 246.761C627.109 242.116 624.26 231.932 628.643 223.813L693.113 261.036Z" fill="white" stroke="#122B13"/>
<path d="M627.882 214.238C632.324 214.238 635.926 217.84 635.926 222.282C635.926 226.725 632.324 230.326 627.882 230.326C623.439 230.326 619.838 226.725 619.838 222.282C619.838 217.84 623.439 214.238 627.882 214.238Z" fill="#317233" stroke="#122B13"/>
<path d="M691.974 259.427V414.441H680.568V259.427H691.974Z" fill="#C3DFC4" stroke="#122B13"/>
<path d="M687.34 182.352C696.563 182.616 703.959 190.175 703.959 199.461V239.685C703.959 248.973 696.564 256.53 687.34 256.795V182.352Z" fill="white" stroke="#122B13"/>
<path d="M663.021 251.286C671.065 246.644 681.31 249.27 686.15 257.124L621.679 294.347C617.366 286.355 620.056 276.366 627.809 271.624L628.188 271.398L663.021 251.286Z" fill="white" stroke="#122B13"/>
<path d="M751.5 295.212C746.66 303.066 736.417 305.693 728.375 301.05L693.541 280.938C685.497 276.294 682.648 266.109 687.03 257.99L751.5 295.212Z" fill="white" stroke="#122B13"/>
<path d="M686.271 248.417C690.713 248.417 694.314 252.019 694.314 256.461C694.314 260.904 690.713 264.505 686.271 264.505C681.828 264.505 678.227 260.904 678.227 256.461C678.227 252.019 681.828 248.417 686.271 248.417Z" fill="#317233" stroke="#122B13"/>
<path d="M319.191 322.149L271.605 414.586H249.242L242.163 315.151L286.034 314.099L319.191 322.149Z" fill="#C3DFC4" stroke="#122B13"/>
<path d="M237.207 296.821L249.706 321.929V414.586H183.028V322.014L216.481 287.394L237.207 296.821Z" fill="white" stroke="#122B13"/>
<path d="M285.877 287.294L318.748 321.313H250.418L217.546 287.294H285.877Z" fill="#C4FD72" stroke="#122B13"/>
<path d="M222.865 366.043V392.227H209.87V366.043H222.865Z" fill="#7DD303" stroke="#122B13"/>
<path d="M222.865 320.76V346.945H209.87V320.76H222.865Z" fill="#7DD303" stroke="#122B13"/>
<path d="M233.776 274.468H290.283C291.537 274.468 292.738 274.977 293.609 275.879L320.849 304.07C323.686 307.006 321.606 311.912 317.522 311.912H261.017C259.763 311.912 258.562 311.403 257.69 310.501L230.45 282.309C227.613 279.373 229.693 274.468 233.776 274.468Z" fill="#7DD303" stroke="#122B13"/>
<path d="M276.292 294.758L288.534 307.427H270.426L258.185 294.758H276.292Z" fill="#317233" stroke="#122B13"/>
<path d="M261.076 278.953L272.493 290.768H254.386L242.97 278.953H261.076Z" fill="#317233" stroke="#122B13"/>
<path d="M299.787 294.758L312.029 307.427H293.922L281.681 294.758H299.787Z" fill="#317233" stroke="#122B13"/>
<path d="M284.572 278.953L295.989 290.768H277.881L266.465 278.953H284.572Z" fill="#317233" stroke="#122B13"/>
<path d="M593.357 297.019V323.638H566.729L562.685 292.924L574.056 292.333L593.357 297.019Z" fill="#C3DFC4" stroke="#122B13"/>
<path d="M559.385 282.197L566.625 296.744V323.638H528.121V296.827L547.487 276.784L559.385 282.197Z" fill="white" stroke="#122B13"/>
<path d="M573.894 276.684L592.678 296.126H567.337L548.552 276.684H573.894Z" fill="#C4FD72" stroke="#122B13"/>
<path d="M550.959 296.219V311.087H543.789V296.219H550.959Z" fill="#7DD303" stroke="#122B13"/>
<path d="M274.245 203.032V229.651H247.617L243.572 198.937L254.943 198.347L274.245 203.032Z" fill="#C3DFC4" stroke="#122B13"/>
<path d="M240.273 188.21L247.513 202.758V229.651H209.009V202.841L228.375 182.798L240.273 188.21Z" fill="white" stroke="#122B13"/>
<path d="M254.782 182.697L273.566 202.14H248.225L229.44 182.697H254.782Z" fill="#C4FD72" stroke="#122B13"/>
<path d="M231.847 202.232V217.1H224.677V202.232H231.847Z" fill="#7DD303" stroke="#122B13"/>
<path d="M442.986 274.359V414.586H340.058L331.537 267.309L409.588 266.248L442.986 274.359Z" fill="#C3DFC4" stroke="#122B13"/>
<path d="M326.589 248.973L339.087 274.084V414.586H272.41V274.167L305.863 239.545L326.589 248.973Z" fill="white" stroke="#122B13"/>
<path d="M409.435 239.444L442.307 273.466H339.799L306.928 239.444H409.435Z" fill="#C4FD72" stroke="#122B13"/>
<path d="M312.247 363.478V389.663H299.252V363.478H312.247Z" fill="#7DD303" stroke="#122B13"/>
<path d="M312.247 318.194V344.378H299.252V318.194H312.247Z" fill="#7DD303" stroke="#122B13"/>
<path d="M312.247 272.911V299.096H299.252V272.911H312.247Z" fill="#7DD303" stroke="#122B13"/>
<path d="M324.416 223.946H380.922C382.178 223.946 383.378 224.455 384.249 225.357L411.488 253.548C414.325 256.484 412.243 261.39 408.16 261.39H351.653C350.402 261.391 349.201 260.881 348.33 259.979L321.089 231.787L320.837 231.506C318.463 228.644 320.331 224.242 324.039 223.96L324.416 223.946Z" fill="#7DD303" stroke="#122B13"/>
<path d="M366.93 244.237L379.172 256.907H361.065L348.824 244.237H366.93Z" fill="#317233" stroke="#122B13"/>
<path d="M351.715 228.431L363.132 240.247H345.025L333.609 228.431H351.715Z" fill="#317233" stroke="#122B13"/>
<path d="M390.426 244.237L402.668 256.907H384.561L372.319 244.237H390.426Z" fill="#317233" stroke="#122B13"/>
<path d="M375.211 228.431L386.628 240.247H368.521L357.104 228.431H375.211Z" fill="#317233" stroke="#122B13"/>
<path d="M471.271 405.759H479.305C484.209 405.759 488.215 409.602 488.475 414.44H462.104C462.363 409.602 466.369 405.759 471.271 405.759Z" fill="#C3DFC4" stroke="#122B13"/>
<path d="M466.737 392.123C470.332 388.874 475.881 388.972 479.36 392.429L488.592 401.603C492.069 405.059 492.202 410.607 488.975 414.223L466.737 392.123Z" fill="#C3DFC4" stroke="#122B13"/>
<path d="M495.928 405.759H502.717C507.62 405.759 511.625 409.602 511.885 414.44H486.76C487.02 409.602 491.025 405.759 495.928 405.759Z" fill="#C3DFC4" stroke="#122B13"/>
<path d="M495.875 392.429C499.353 388.972 504.901 388.874 508.497 392.123L486.258 414.223C483.032 410.607 483.164 405.059 486.641 401.603L495.875 392.429Z" fill="#C3DFC4" stroke="#122B13"/>
<path d="M578.771 362.907H603.521C607.263 362.907 609.819 365.922 609.819 369.769V377.377L590.666 381.263L571.516 377.377V369.769C571.516 366.009 574.944 362.907 578.771 362.907Z" fill="#FD4B13" stroke="#122B13"/>
<path d="M609.819 378.286V408.044H571.517V378.286H609.819Z" fill="#7DD303" stroke="#122B13"/>
<path d="M605.62 401.155C607.94 401.155 609.819 403.035 609.819 405.354V411.241C609.819 413.56 607.94 415.44 605.62 415.44C603.301 415.44 601.421 413.56 601.421 411.241V405.354C601.421 403.035 603.301 401.155 605.62 401.155Z" fill="white" stroke="#122B13"/>
<path d="M575.716 401.155C578.036 401.155 579.916 403.035 579.916 405.354V411.241C579.916 413.56 578.036 415.44 575.716 415.44C573.397 415.44 571.517 413.56 571.517 411.241V405.354C571.517 403.035 573.397 401.155 575.716 401.155Z" fill="white" stroke="#122B13"/>
<path d="M412.121 287.388C412.747 288.067 413.642 289.071 414.717 290.365C416.868 292.953 419.737 296.699 422.605 301.327C428.348 310.593 434.064 323.355 434.064 337.423C434.064 351.492 428.348 364.253 422.605 373.519C419.737 378.148 416.868 381.894 414.717 384.482C413.641 385.775 412.747 386.78 412.121 387.459C411.867 387.735 411.656 387.955 411.497 388.121C411.338 387.955 411.128 387.735 410.874 387.459C410.248 386.78 409.354 385.775 408.278 384.482C406.127 381.894 403.257 378.148 400.389 373.519C394.647 364.253 388.931 351.492 388.931 337.423C388.931 323.356 394.647 310.594 400.389 301.328C403.257 296.699 406.127 292.953 408.278 290.365C409.353 289.071 410.249 288.067 410.874 287.388C411.128 287.112 411.338 286.89 411.497 286.724C411.656 286.89 411.867 287.112 412.121 287.388Z" fill="#7DD303" stroke="#122B13"/>
<path d="M411.498 414.94V324.137" stroke="#122B13" stroke-miterlimit="10"/>
<path d="M368.721 325.678C369.16 326.155 369.789 326.86 370.544 327.769C372.055 329.588 374.071 332.22 376.087 335.473C380.123 341.987 384.134 350.947 384.134 360.815C384.134 370.684 380.123 379.644 376.087 386.157C374.071 389.409 372.055 392.042 370.544 393.861C369.788 394.77 369.16 395.475 368.721 395.952C368.595 396.088 368.483 396.204 368.39 396.302C368.297 396.204 368.185 396.088 368.06 395.952C367.621 395.475 366.992 394.769 366.236 393.86C364.725 392.041 362.709 389.408 360.693 386.156C356.657 379.642 352.647 370.683 352.646 360.815C352.646 350.946 356.657 341.986 360.693 335.473C362.709 332.22 364.725 329.588 366.236 327.769C366.992 326.86 367.621 326.155 368.06 325.678C368.185 325.542 368.297 325.425 368.39 325.327C368.483 325.425 368.595 325.542 368.721 325.678Z" fill="#4B8B4D" stroke="#122B13"/>
<path d="M368.388 415.409V351.459" stroke="#122B13" stroke-miterlimit="10"/>
</svg>
