<svg width="127" height="155" viewBox="0 0 127 155" fill="none" xmlns="http://www.w3.org/2000/svg">
<path d="M100.38 150.471C76.8179 159.221 67.5359 150.471 67.5359 150.471C67.5359 150.471 66.5029 74.458 65.8149 67.264C65.1259 60.071 63.2399 59.292 63.2399 59.292C63.2399 59.292 61.3399 60.071 60.6509 67.264C59.9619 74.457 58.9429 150.471 58.9429 150.471C58.9429 150.471 50.7769 158.163 30.3549 151.919H30.3409C28.9779 151.499 27.5729 151.016 26.0999 150.471C2.53793 141.736 -1.93808 121.9 0.650925 110.238C3.22592 98.576 8.72093 98.374 14.2289 102.842C16.1569 104.415 18.8699 106.33 21.6929 107.871C26.9399 110.705 32.6129 112.184 34.5139 107.513C36.7719 101.97 29.3219 99.666 22.1609 97.735V97.719C20.0269 97.158 17.9329 96.614 16.1159 96.037C8.21092 93.515 1.16092 90.401 4.76892 78.349C8.39092 66.298 12.6869 65.317 15.6069 66.298C18.1269 67.139 17.6999 70.736 25.4119 75.08C26.6239 75.765 28.0419 76.466 29.7089 77.182C41.9099 82.429 45.3529 72.9 40.2019 69.21C37.2689 67.108 32.3249 66.08 27.8499 64.43C24.4619 63.184 21.3359 61.581 19.5599 58.903C15.4289 52.691 18.3619 47.63 20.9369 41.605C23.5119 35.579 27.2989 30.721 30.3969 31.889C32.5449 32.699 34.6939 36.046 37.0759 39.44C38.1229 40.935 39.2099 42.43 40.3669 43.737C44.1539 48.019 51.8929 52.098 55.6659 46.664C56.3409 45.699 56.6299 44.858 56.6299 44.095C56.6299 40.53 50.2949 38.661 46.0399 34.021C44.8139 32.666 43.7129 31.234 42.8309 29.739C39.9529 25.006 39.0849 19.836 42.0869 16.131C47.9259 8.953 51.4509 11.631 56.6149 6.586C59.2179 4.033 63.2389 0 63.2389 0C63.2389 0 67.2599 4.033 69.8629 6.586C75.0129 11.631 78.5389 8.953 84.3909 16.131C88.3429 20.989 85.5889 28.385 80.4249 34.021C76.1839 38.661 69.8349 40.529 69.8349 44.095C69.8349 44.858 70.1239 45.699 70.7989 46.664C74.5859 52.098 82.3249 48.019 86.0979 43.737C89.8849 39.471 92.9829 33.056 96.0819 31.888C99.1669 30.72 102.954 35.578 105.529 41.604C108.118 47.63 111.037 52.69 106.906 58.902C102.789 65.13 91.4409 65.519 86.2769 69.209C81.1129 72.899 84.5559 82.428 96.7699 77.181C108.971 71.934 107.938 67.263 110.871 66.297C113.79 65.316 118.087 66.297 121.695 78.348C125.303 90.399 118.252 93.513 110.348 96.036C102.444 98.574 89.0309 100.318 91.9499 107.511C94.8689 114.704 106.74 107.309 112.235 102.84C117.743 98.371 123.252 98.574 125.827 110.236C128.404 121.9 123.928 141.736 100.38 150.471Z" fill="#196650"/>
<path d="M100.38 150.471C76.8177 159.221 67.5358 150.471 67.5358 150.471C67.5358 150.471 66.5027 74.458 65.8147 67.264C65.1257 60.071 63.2397 59.292 63.2397 59.292V0.000976562C63.2397 0.000976562 67.2608 4.03398 69.8638 6.58698C75.0138 11.632 78.5397 8.95397 84.3917 16.132C88.3437 20.99 85.5897 28.386 80.4257 34.022C76.1847 38.662 69.8357 40.53 69.8357 44.096C69.8357 44.859 70.1247 45.7 70.7997 46.665C74.5867 52.099 82.3257 48.02 86.0987 43.738C89.8857 39.472 92.9837 33.057 96.0827 31.889C99.1677 30.721 102.955 35.579 105.53 41.605C108.119 47.631 111.038 52.691 106.907 58.903C102.79 65.131 91.4418 65.52 86.2778 69.21C81.1138 72.9 84.5567 82.429 96.7707 77.182C108.972 71.935 107.939 67.264 110.872 66.298C113.791 65.317 118.088 66.298 121.696 78.349C125.304 90.4 118.253 93.514 110.349 96.037C102.445 98.575 89.0317 100.319 91.9507 107.512C94.8697 114.705 106.741 107.31 112.236 102.841C117.744 98.372 123.253 98.575 125.828 110.237C128.404 121.9 123.928 141.736 100.38 150.471Z" fill="#084442"/>
<path opacity="0.49" d="M4.76894 78.3499C8.39094 66.2989 12.6869 65.3179 15.6069 66.2989C18.1269 67.1399 17.6999 70.7369 25.4119 75.0809C24.2829 80.7799 23.3189 87.0389 22.5479 93.8739C22.3969 95.1659 22.2729 96.4589 22.1619 97.7199C20.0279 97.1589 17.9339 96.6149 16.1169 96.0379C8.21194 93.5149 1.16094 90.4009 4.76894 78.3499Z" fill="#3A8E5C"/>
<path opacity="0.49" d="M21.6929 107.871C21.5689 126.726 25.6999 141.409 30.3409 151.919C28.9779 151.499 27.5729 151.016 26.0999 150.471C2.53793 141.736 -1.93808 121.9 0.650925 110.238C3.22592 98.5761 8.72093 98.3741 14.2289 102.842C16.1569 104.414 18.8699 106.33 21.6929 107.871Z" fill="#3A8E5C"/>
<path opacity="0.49" d="M37.0749 39.4401C33.7289 45.9791 30.5199 54.1541 27.8479 64.4301C24.4599 63.1841 21.3339 61.5811 19.5579 58.9031C15.4269 52.6911 18.3599 47.6301 20.9349 41.6051C23.5099 35.5791 27.2969 30.7211 30.3949 31.8891C32.5449 32.6991 34.6929 36.0461 37.0749 39.4401Z" fill="#3A8E5C"/>
<path opacity="0.49" d="M54.9217 16.225C51.6447 19.152 47.3067 23.263 42.8307 29.74C39.9527 25.007 39.0847 19.837 42.0867 16.132C47.9257 8.95397 51.4507 11.632 56.6147 6.58698C59.2177 4.03398 63.2387 0.000976562 63.2387 0.000976562C63.2387 0.000976562 64.1067 8.06598 54.9217 16.225Z" fill="#3A8E5C"/>
</svg>
