<svg width="155" height="77" viewBox="0 0 155 77" fill="none" xmlns="http://www.w3.org/2000/svg">
<path d="M113.404 76.9901C113.404 56.9041 97.1142 40.6273 77.0265 40.6273C56.9322 40.6273 40.6422 56.9041 40.6422 76.9901H0C0 34.4689 34.4888 0 77.0265 0C119.564 0 154.046 34.4689 154.046 76.9901H113.404Z" fill="#D9DF40"/>
<path d="M77.0249 9.125C39.5281 9.125 9.1267 39.5081 9.1267 76.99H33.9458C33.9458 53.2106 53.2339 33.9341 77.0232 33.9341C100.813 33.9341 120.097 53.2106 120.097 76.99H144.916C144.918 39.5081 114.522 9.125 77.0249 9.125Z" fill="#E38821"/>
<path d="M77.0249 44.9366C59.3128 44.9366 44.9531 59.2848 44.9531 76.9902H56.6756C56.6756 65.7577 65.7858 56.6542 77.0232 56.6542C88.2573 56.6542 97.3675 65.7577 97.3675 76.9902H109.09C109.092 59.2848 94.732 44.9366 77.0249 44.9366Z" fill="#203827"/>
<path d="M77.0249 19.1174C45.0491 19.1174 19.1242 45.0275 19.1242 76.99H33.9176C33.9176 53.1923 53.219 33.9059 77.0265 33.9059C100.826 33.9059 120.127 53.1907 120.127 76.99H134.921C134.921 45.0275 109.001 19.1174 77.0249 19.1174Z" fill="#203827"/>
</svg>
