<svg width="320" height="115" viewBox="0 0 320 115" fill="none" xmlns="http://www.w3.org/2000/svg">
<path d="M301.43 0.430062C301.43 0.430062 241.386 -8.39174 237.062 53.8746C237.062 53.8746 296.354 67.0444 301.43 0.430062Z" fill="#60A84C"/>
<path d="M176.198 0.430062C176.198 0.430062 236.242 -8.39174 240.567 53.8746C240.567 53.8746 181.274 67.0444 176.198 0.430062Z" fill="#60A84C"/>
<path d="M236.958 114.827H242.498V41.7904H236.958V114.827Z" fill="#60A84C"/>
<path d="M279.404 75.14C301.45 75.14 319.321 93.0112 319.321 115.057H239.485C239.487 93.0112 257.358 75.14 279.404 75.14Z" fill="#203827"/>
<path d="M198.031 76.2606C219.457 76.2606 236.827 93.6311 236.827 115.057H159.234C159.234 93.6311 176.605 76.2606 198.031 76.2606Z" fill="#203827"/>
<path d="M119.372 76.2606C140.798 76.2606 158.168 93.6311 158.168 115.057H80.5776C80.5776 93.6311 97.946 76.2606 119.372 76.2606Z" fill="#203827"/>
<path d="M38.7964 76.2606C60.2223 76.2606 77.5928 93.6311 77.5928 115.057H0C0 93.6311 17.3705 76.2606 38.7964 76.2606Z" fill="#203827"/>
</svg>
