<svg width="167" height="185" viewBox="0 0 167 185" fill="none" xmlns="http://www.w3.org/2000/svg">
<path d="M83.4973 148.182C114.307 148.182 139.283 123.217 139.283 92.4196C139.283 61.6228 114.307 36.657 83.4973 36.657C52.6876 36.657 27.7113 61.6228 27.7113 92.4196C27.7113 123.217 52.6876 148.182 83.4973 148.182Z" fill="#E38821"/>
<path d="M108.741 92.4196C108.741 106.356 97.4389 117.652 83.4973 117.652C69.5558 117.652 58.2539 106.356 58.2539 92.4196C58.2539 78.4835 69.5558 67.187 83.4973 67.187C97.4389 67.187 108.741 78.4835 108.741 92.4196Z" fill="#203827"/>
<path d="M83.4973 22.7962V1" stroke="#203827" stroke-width="1.8267" stroke-miterlimit="10" stroke-linecap="round" stroke-linejoin="round"/>
<path d="M83.4973 183.837V162.041" stroke="#203827" stroke-width="1.8267" stroke-miterlimit="10" stroke-linecap="round" stroke-linejoin="round"/>
<path d="M48.6694 32.1222L42.2433 20.9909" stroke="#203827" stroke-width="1.8267" stroke-miterlimit="10" stroke-linecap="round" stroke-linejoin="round"/>
<path d="M124.757 163.845L118.331 152.713" stroke="#203827" stroke-width="1.8267" stroke-miterlimit="10" stroke-linecap="round" stroke-linejoin="round"/>
<path d="M23.1784 57.6079L4.29472 46.7098" stroke="#203827" stroke-width="1.8267" stroke-miterlimit="10" stroke-linecap="round" stroke-linejoin="round"/>
<path d="M162.7 138.128L143.818 127.23" stroke="#203827" stroke-width="1.8267" stroke-miterlimit="10" stroke-linecap="round" stroke-linejoin="round"/>
<path d="M13.8523 92.425H1" stroke="#203827" stroke-width="1.8267" stroke-miterlimit="10" stroke-linecap="round" stroke-linejoin="round"/>
<path d="M166 92.425H153.148" stroke="#203827" stroke-width="1.8267" stroke-miterlimit="10" stroke-linecap="round" stroke-linejoin="round"/>
<path d="M23.1784 127.23L4.29472 138.128" stroke="#203827" stroke-width="1.8267" stroke-miterlimit="10" stroke-linecap="round" stroke-linejoin="round"/>
<path d="M162.7 46.7098L143.818 57.6079" stroke="#203827" stroke-width="1.8267" stroke-miterlimit="10" stroke-linecap="round" stroke-linejoin="round"/>
<path d="M48.6694 152.713L42.2433 163.845" stroke="#203827" stroke-width="1.8267" stroke-miterlimit="10" stroke-linecap="round" stroke-linejoin="round"/>
<path d="M124.757 20.9909L118.331 32.1222" stroke="#203827" stroke-width="1.8267" stroke-miterlimit="10" stroke-linecap="round" stroke-linejoin="round"/>
</svg>
